<svg width="41" height="26" viewBox="0 0 41 26" fill="none" xmlns="http://www.w3.org/2000/svg">
<path fill-rule="evenodd" clip-rule="evenodd" d="M0.863114 7.70787C0.864008 7.50295 0.905352 7.30023 0.984775 7.11133C1.0642 6.92243 1.18014 6.75106 1.32594 6.60707C1.47175 6.46308 1.64455 6.3493 1.83443 6.27225C2.02431 6.1952 2.22754 6.15639 2.43245 6.15807L18.0596 6.27975C18.9227 6.28639 19.6629 6.98971 19.7131 7.85045L19.8141 9.58248L25.025 1.30279C25.1327 1.12958 25.2742 0.979837 25.441 0.86249C25.6078 0.745143 25.7966 0.662599 25.996 0.619782C26.1954 0.576964 26.4014 0.574751 26.6017 0.613274C26.802 0.651798 26.9924 0.730269 27.1617 0.844005L40.2469 9.50983C40.5933 9.73904 40.8346 10.0963 40.9179 10.5032C41.0012 10.9101 40.9197 11.3334 40.6912 11.6803L32.1432 24.6698C31.6682 25.3915 30.6887 25.6073 29.9563 25.1522L19.8141 18.8504V24.0243C19.8141 24.8874 19.1143 25.5868 18.253 25.5868H2.34749C2.14264 25.587 1.93977 25.5467 1.75057 25.4682C1.56137 25.3897 1.38957 25.2745 1.24507 25.1293C1.10058 24.9841 0.986245 24.8117 0.908657 24.6222C0.831068 24.4326 0.79176 24.2295 0.792997 24.0247L0.863114 7.70787ZM3.17327 9.01529L3.13636 23.0409L17.6143 23.0551L17.6075 17.2387L16.4446 16.4342C16.0912 16.1901 15.9807 15.6901 16.1991 15.319L17.6799 12.8042L17.5889 8.94693L3.17327 9.01529ZM26.5633 3.42916L19.0471 15.1069L30.9543 22.5913L38.3004 11.1579L26.5633 3.42916Z" fill="white"/>
<path d="M22.9531 15.9297C23.8161 15.9297 24.5156 15.2301 24.5156 14.3672C24.5156 13.5042 23.8161 12.8047 22.9531 12.8047C22.0902 12.8047 21.3906 13.5042 21.3906 14.3672C21.3906 15.2301 22.0902 15.9297 22.9531 15.9297Z" fill="white"/>
<path d="M28.2266 14.9531C29.0895 14.9531 29.7891 14.2536 29.7891 13.3906C29.7891 12.5277 29.0895 11.8281 28.2266 11.8281C27.3636 11.8281 26.6641 12.5277 26.6641 13.3906C26.6641 14.2536 27.3636 14.9531 28.2266 14.9531Z" fill="white"/>
<path d="M33.6953 13.9766C34.5583 13.9766 35.2578 13.277 35.2578 12.4141C35.2578 11.5511 34.5583 10.8516 33.6953 10.8516C32.8324 10.8516 32.1328 11.5511 32.1328 12.4141C32.1328 13.277 32.8324 13.9766 33.6953 13.9766Z" fill="white"/>
<path d="M5.76562 13.7812C6.62857 13.7812 7.32812 13.0817 7.32812 12.2188C7.32812 11.3558 6.62857 10.6562 5.76562 10.6562C4.90268 10.6562 4.20312 11.3558 4.20312 12.2188C4.20312 13.0817 4.90268 13.7812 5.76562 13.7812Z" fill="white"/>
<path d="M10.2578 17.8828C11.1208 17.8828 11.8203 17.1833 11.8203 16.3203C11.8203 15.4574 11.1208 14.7578 10.2578 14.7578C9.39487 14.7578 8.69531 15.4574 8.69531 16.3203C8.69531 17.1833 9.39487 17.8828 10.2578 17.8828Z" fill="white"/>
<path d="M14.5547 13.5859C15.4176 13.5859 16.1172 12.8864 16.1172 12.0234C16.1172 11.1605 15.4176 10.4609 14.5547 10.4609C13.6917 10.4609 12.9922 11.1605 12.9922 12.0234C12.9922 12.8864 13.6917 13.5859 14.5547 13.5859Z" fill="white"/>
<path d="M5.96094 21.7891C6.82388 21.7891 7.52344 21.0895 7.52344 20.2266C7.52344 19.3636 6.82388 18.6641 5.96094 18.6641C5.09799 18.6641 4.39844 19.3636 4.39844 20.2266C4.39844 21.0895 5.09799 21.7891 5.96094 21.7891Z" fill="white"/>
<path d="M14.5547 21.7891C15.4176 21.7891 16.1172 21.0895 16.1172 20.2266C16.1172 19.3636 15.4176 18.6641 14.5547 18.6641C13.6917 18.6641 12.9922 19.3636 12.9922 20.2266C12.9922 21.0895 13.6917 21.7891 14.5547 21.7891Z" fill="white"/>
</svg>
