<svg width="28" height="28" viewBox="0 0 28 28" fill="none" xmlns="http://www.w3.org/2000/svg">
<path d="M22.6399 9.17255C22.2987 8.61191 21.8159 8.15109 21.2399 7.83655L15.8132 4.80322C15.2566 4.50097 14.6333 4.34265 13.9999 4.34265C13.3665 4.34265 12.7432 4.50097 12.1865 4.80322L6.75988 7.83655C6.18373 8.15146 5.70082 8.61275 5.35987 9.17388C5.02654 9.74988 4.85187 10.4059 4.85321 11.0712V16.9259C4.85187 17.5926 5.02654 18.2472 5.35987 18.8246C5.69721 19.3886 6.18121 19.8512 6.75988 20.1606L12.1865 23.1819C12.742 23.4877 13.3658 23.648 13.9999 23.648C14.634 23.648 15.2577 23.4877 15.8132 23.1819L21.2399 20.1606C21.8185 19.8499 22.3025 19.3872 22.6399 18.8246C22.9719 18.2512 23.1465 17.6019 23.1465 16.9392V11.1259C23.1579 10.4413 22.9827 9.7652 22.6399 9.17255ZM21.1465 16.9406C21.1465 17.2459 21.0692 17.5446 20.9199 17.8099C20.7612 18.0766 20.5359 18.2992 20.2665 18.4512L14.9999 21.3792V14.5726L21.1332 10.8699C21.1394 10.9366 21.1394 11.0032 21.1332 11.0699L21.1465 16.9406ZM26.3332 9.50722C26.2018 9.50722 26.0716 9.48131 25.9502 9.43097C25.8288 9.38063 25.7185 9.30685 25.6256 9.21385C25.5328 9.12085 25.4591 9.01046 25.4089 8.88898C25.3588 8.7675 25.333 8.63732 25.3332 8.50589V5.83255C25.3357 5.42303 25.2568 5.0171 25.1012 4.6383C24.9455 4.2595 24.7162 3.91537 24.4265 3.62588C23.8433 3.04076 23.0527 2.70963 22.2265 2.70455H18.1065C17.975 2.70455 17.8447 2.6786 17.7232 2.62818C17.6017 2.57776 17.4914 2.50386 17.3985 2.41072C17.3056 2.31758 17.232 2.20702 17.1819 2.08539C17.1318 1.96375 17.1062 1.83343 17.1065 1.70189C17.1069 1.43653 17.2123 1.18211 17.3997 0.994221C17.587 0.806337 17.8412 0.700276 18.1065 0.699219H22.2265C23.5833 0.705475 24.8824 1.2486 25.8399 2.20989C26.3168 2.68434 26.6945 3.24903 26.9509 3.87101C27.2073 4.493 27.3373 5.15981 27.3332 5.83255V8.50589C27.3325 8.77101 27.227 9.02509 27.0396 9.21269C26.8523 9.40028 26.5983 9.50616 26.3332 9.50722ZM22.2265 27.3659H18.1065C17.975 27.3659 17.8447 27.3399 17.7232 27.2895C17.6017 27.2391 17.4914 27.1652 17.3985 27.072C17.3056 26.9789 17.232 26.8684 17.1819 26.7467C17.1318 26.6251 17.1062 26.4948 17.1065 26.3632C17.1069 26.0979 17.2123 25.8434 17.3997 25.6556C17.587 25.4677 17.8412 25.3616 18.1065 25.3606H22.2265C22.8422 25.3628 23.4445 25.1812 23.9563 24.8392C24.4682 24.4972 24.8664 24.0102 25.0999 23.4405C25.2559 23.0619 25.3345 22.6552 25.3332 22.2459V19.4926C25.3336 19.2272 25.4389 18.9728 25.6263 18.7849C25.8137 18.597 26.0679 18.4909 26.3332 18.4899C26.4648 18.4899 26.595 18.5158 26.7165 18.5663C26.838 18.6167 26.9484 18.6906 27.0413 18.7837C27.1342 18.8769 27.2078 18.9874 27.2579 19.109C27.308 19.2307 27.3336 19.361 27.3332 19.4926V22.2459C27.3347 22.9183 27.2037 23.5845 26.9477 24.2063C26.6917 24.8281 26.3157 25.3934 25.8412 25.8699C25.367 26.3452 24.8036 26.722 24.1832 26.9788C23.5629 27.2355 22.8979 27.3671 22.2265 27.3659ZM9.89321 27.3659H5.77321C5.10162 27.3685 4.43621 27.2376 3.81567 26.9808C3.19512 26.724 2.63183 26.3464 2.15854 25.8699C1.68346 25.3938 1.30709 24.8286 1.05105 24.2067C0.795009 23.5848 0.664339 22.9184 0.666542 22.2459V19.4926C0.666892 19.2272 0.772276 18.9728 0.959661 18.7849C1.14704 18.597 1.40119 18.4909 1.66654 18.4899C1.79809 18.4899 1.92834 18.5158 2.04984 18.5663C2.17134 18.6167 2.2817 18.6906 2.37459 18.7837C2.46749 18.8769 2.54109 18.9874 2.59119 19.109C2.64129 19.2307 2.66689 19.361 2.66654 19.4926V22.2459C2.66418 22.862 2.84509 23.4649 3.18626 23.978C3.52743 24.4911 4.01345 24.8911 4.58254 25.1272C4.95993 25.2835 5.36474 25.3628 5.77321 25.3606H9.89321C10.0248 25.3605 10.155 25.3865 10.2765 25.4369C10.398 25.4873 10.5084 25.5612 10.6013 25.6544C10.6942 25.7475 10.7678 25.8581 10.8179 25.9797C10.868 26.1013 10.8936 26.2317 10.8932 26.3632C10.8929 26.6286 10.7875 26.883 10.6001 27.0709C10.4127 27.2588 10.1586 27.3648 9.89321 27.3659ZM1.66654 9.50722C1.53511 9.50722 1.40496 9.48131 1.28355 9.43097C1.16214 9.38063 1.05184 9.30685 0.958963 9.21385C0.866087 9.12085 0.792455 9.01046 0.742279 8.88898C0.692103 8.7675 0.666366 8.63732 0.666542 8.50589V5.83255C0.663958 5.16002 0.794589 4.49364 1.0509 3.87187C1.30721 3.25009 1.68412 2.68523 2.15987 2.20989C3.11735 1.2486 4.41645 0.705475 5.77321 0.699219H9.89321C10.0248 0.699218 10.155 0.725172 10.2765 0.775593C10.398 0.826015 10.5084 0.899913 10.6013 0.993054C10.6942 1.0862 10.7678 1.19675 10.8179 1.31838C10.868 1.44002 10.8936 1.57034 10.8932 1.70189C10.8929 1.96724 10.7875 2.22167 10.6001 2.40955C10.4127 2.59743 10.1586 2.7035 9.89321 2.70455H5.77321C5.15704 2.70845 4.55569 2.89393 4.04438 3.2378C3.53308 3.58168 3.13451 4.06868 2.89854 4.63789C2.74218 5.01661 2.66329 5.42283 2.66654 5.83255V8.50589C2.66584 8.77101 2.5603 9.02509 2.37295 9.21269C2.18561 9.40028 1.93166 9.50616 1.66654 9.50722Z" fill="white"/>
</svg>
