<svg width="38" height="38" viewBox="0 0 38 38" fill="none" xmlns="http://www.w3.org/2000/svg">
<path d="M6.83317 0.417969H23.9165V3.83464H6.83317V20.918H3.4165V3.83464C3.4165 1.93839 4.93692 0.417969 6.83317 0.417969ZM13.6665 7.2513H30.7498V10.668H13.6665V27.7513H10.2498V10.668C10.2498 8.77172 11.7703 7.2513 13.6665 7.2513ZM20.4998 14.0846H34.1665C36.0628 14.0846 37.5832 15.6051 37.5832 17.5013V31.168C37.5832 33.0642 36.0628 34.5846 34.1665 34.5846H20.4998C18.6036 34.5846 17.0832 33.0642 17.0832 31.168V17.5013C17.0832 15.6051 18.6036 14.0846 20.4998 14.0846ZM23.9165 17.5013V31.168L34.1665 24.3346L23.9165 17.5013Z" fill="white"/>
</svg>
