<svg width="347" height="316" viewBox="0 0 347 316" fill="none" xmlns="http://www.w3.org/2000/svg">
<g clip-path="url(#clip0_2_68)">
<g opacity="0.4">
<path d="M39.2652 313.178C126.199 313.178 196.667 243.707 196.667 157.977C196.667 72.2481 126.199 2.77734 39.2652 2.77734C-47.6683 2.77734 -118.137 72.2929 -118.137 158.022C-118.137 243.752 -47.6683 313.223 39.2652 313.223V313.178Z" stroke="#E8E8E8" stroke-miterlimit="10"/>
<path d="M186.78 313.178C273.713 313.178 344.182 243.707 344.182 157.977C344.182 72.2481 273.713 2.77734 186.78 2.77734C99.846 2.77734 29.3779 72.2481 29.3779 157.977C29.3779 243.707 99.846 313.178 186.78 313.178Z" stroke="#E8E8E8" stroke-miterlimit="10"/>
<path d="M-118.763 157.979H197.294" stroke="#E8E8E8" stroke-miterlimit="10"/>
</g>
</g>
<defs>
<clipPath id="clip0_2_68">
<rect width="367" height="316" fill="white" transform="translate(-20)"/>
</clipPath>
</defs>
</svg>
