<svg width="31" height="31" viewBox="0 0 31 31" fill="none" xmlns="http://www.w3.org/2000/svg">
<path d="M29.3908 1.63941L19.3028 11.7275M6.59915 16.2135L9.61891 7.15424C9.6671 7.00903 9.74961 6.87758 9.85945 6.77106C9.96928 6.66454 10.1032 6.58609 10.2498 6.54236L28.7615 1.04021C28.9283 0.990683 29.1055 0.987845 29.2737 1.03201C29.442 1.07617 29.5949 1.16564 29.7159 1.29069C29.8369 1.41573 29.9212 1.57156 29.9598 1.74121C29.9983 1.91086 29.9896 2.08784 29.9345 2.25287L23.9235 20.2827C23.8805 20.4121 23.81 20.5308 23.717 20.6306C23.6241 20.7305 23.5107 20.8091 23.3846 20.8613L14.8452 24.3772C14.6716 24.4489 14.4807 24.4676 14.2965 24.4309C14.1123 24.3942 13.943 24.3038 13.8101 24.1711L6.829 17.1868C6.70409 17.0619 6.61642 16.9047 6.57582 16.7328C6.53522 16.5609 6.5433 16.3811 6.59915 16.2135Z" stroke="white" stroke-width="1.5" stroke-linecap="round" stroke-linejoin="round"/>
<path d="M6.41148 16.7711L1.92859 21.2556C1.33424 21.8501 1.00036 22.6564 1.00036 23.497C1.00036 24.3377 1.33424 25.1439 1.92859 25.7385L5.28917 29.1022C5.58358 29.3968 5.93314 29.6304 6.31787 29.7898C6.70259 29.9492 7.11496 30.0312 7.5314 30.0312C7.94785 30.0312 8.36021 29.9492 8.74494 29.7898C9.12967 29.6304 9.47923 29.3968 9.77364 29.1022L14.2565 24.6178M15.94 15.0908C16.1608 15.3116 16.423 15.4867 16.7116 15.6061C17.0001 15.7256 17.3093 15.787 17.6216 15.7869C17.9339 15.7869 18.2431 15.7253 18.5316 15.6057C18.8201 15.4861 19.0822 15.3109 19.3029 15.09C19.5237 14.8692 19.6988 14.607 19.8182 14.3185C19.9377 14.0299 19.9991 13.7207 19.999 13.4084C19.9989 13.0961 19.9374 12.7869 19.8178 12.4984C19.6982 12.21 19.523 11.9479 19.3021 11.7271C18.8561 11.2812 18.2512 11.0308 17.6205 11.031C16.9898 11.0311 16.385 11.2818 15.9392 11.7279C15.4933 12.1739 15.2429 12.7788 15.2431 13.4095C15.2432 14.0402 15.4939 14.645 15.94 15.0908Z" stroke="white" stroke-width="1.5" stroke-linecap="round" stroke-linejoin="round"/>
</svg>
